<?xml version="1.0" standalone="no"?>
<!DOCTYPE svg PUBLIC "-//W3C//DTD SVG 20010904//EN"
 "http://www.w3.org/TR/2001/REC-SVG-20010904/DTD/svg10.dtd">
<svg version="1.0" xmlns="http://www.w3.org/2000/svg"
 width="4500.000000pt" height="4500.000000pt" viewBox="0 0 4500.000000 4500.000000"
 preserveAspectRatio="xMidYMid meet">

<g transform="translate(0.000000,4500.000000) scale(0.100000,-0.100000)"
fill="#000000" stroke="none">
<path d="M13115 28635 c-605 -95 -1182 -557 -1744 -1395 -634 -944 -1217
-2314 -1741 -4085 -271 -916 -610 -2329 -610 -2541 0 -95 33 -133 170 -198
104 -50 210 -69 333 -62 103 6 151 20 179 53 19 20 122 428 403 1583 259 1066
332 1349 361 1393 14 21 45 51 70 67 104 66 622 237 1084 358 336 89 1095 248
1235 259 99 8 100 7 91 -170 -33 -707 -25 -1086 35 -1567 79 -641 256 -1188
505 -1565 215 -327 500 -555 829 -664 219 -72 507 -99 755 -71 47 5 149 16
226 24 405 43 689 156 982 393 202 164 383 398 534 693 57 110 59 113 54 68
-30 -257 -33 -513 -6 -638 86 -411 317 -567 784 -531 161 13 176 18 229 75
151 164 296 569 533 1491 52 204 131 507 174 675 240 926 397 1370 583 1645
82 121 272 311 350 349 187 93 318 0 400 -284 70 -241 99 -616 116 -1510 17
-844 20 -921 36 -983 60 -232 249 -353 498 -320 117 16 193 47 243 98 154 158
446 1035 858 2576 52 194 104 380 116 411 45 121 134 222 223 255 84 30 177 2
224 -68 l28 -43 0 -195 c0 -108 -6 -468 -13 -801 -39 -1729 91 -2740 411
-3215 126 -186 312 -283 562 -292 89 -4 138 -1 190 11 94 22 252 101 356 176
111 82 321 296 437 445 111 143 301 425 396 588 38 64 72 117 75 117 4 0 24
-47 45 -105 21 -58 69 -168 106 -243 264 -531 649 -863 1120 -967 101 -22 383
-31 491 -15 532 77 995 526 1234 1195 67 187 61 179 125 187 402 53 468 65
705 124 155 39 404 120 500 163 l62 28 -1 -311 c0 -309 7 -409 41 -596 66
-365 219 -588 448 -656 131 -39 422 -9 494 51 69 59 134 236 232 635 270 1099
616 2114 964 2825 284 581 527 839 686 732 96 -64 168 -272 204 -589 34 -292
57 -439 91 -576 151 -615 415 -880 759 -762 32 11 78 31 103 45 25 14 46 24
48 23 1 -2 7 -99 13 -217 13 -246 42 -493 71 -599 31 -114 107 -315 164 -436
109 -231 226 -395 402 -566 290 -281 610 -451 965 -511 106 -18 152 -20 319
-16 225 5 343 25 534 88 291 97 438 191 660 420 489 503 724 905 626 1067 -41
66 -134 78 -236 30 -53 -24 -101 -70 -264 -247 -387 -422 -766 -643 -1105
-642 -192 0 -360 64 -515 196 -238 202 -426 566 -471 912 -13 97 -2 190 24
211 7 5 66 15 132 21 231 23 448 86 680 201 430 211 717 476 965 891 172 286
302 632 339 901 32 233 -93 531 -318 756 -254 254 -589 378 -971 358 -337 -17
-622 -128 -905 -354 -426 -340 -812 -1020 -990 -1744 -19 -78 -35 -154 -35
-168 0 -14 -6 -34 -13 -45 -13 -17 -15 -17 -35 3 -11 11 -30 50 -41 86 -20 64
-33 128 -126 610 -112 583 -239 959 -410 1223 -68 104 -215 253 -298 302 -202
118 -442 125 -651 19 -141 -72 -327 -235 -468 -412 -295 -368 -581 -930 -825
-1621 -48 -136 -62 -168 -58 -130 3 28 17 136 30 240 84 658 96 1292 30 1610
-59 286 -167 529 -303 675 -110 120 -198 164 -364 181 -183 18 -306 -17 -404
-116 -95 -98 -183 -312 -204 -501 -19 -158 -24 -1303 -10 -2132 14 -864 25
-765 -92 -834 -151 -89 -403 -186 -643 -247 -116 -29 -396 -84 -400 -79 -2 2
8 55 21 118 91 433 128 750 128 1110 1 378 -32 612 -125 894 -303 922 -928
1426 -1767 1426 -210 0 -371 -22 -552 -77 -163 -49 -274 -121 -458 -298 -375
-360 -583 -816 -659 -1445 -24 -203 -24 -698 1 -1030 25 -324 26 -556 3 -630
-19 -63 -144 -263 -272 -436 -265 -358 -475 -534 -636 -534 -61 0 -94 16 -143
71 -78 85 -125 246 -151 514 -22 225 -27 471 -35 1520 -5 705 -13 1236 -20
1320 -32 404 -161 717 -390 946 -187 187 -398 279 -641 279 -426 0 -832 -323
-1133 -901 -108 -207 -210 -461 -281 -701 -16 -54 -32 -98 -36 -98 -4 0 -30
66 -59 148 -206 575 -438 978 -669 1164 -279 224 -555 195 -854 -91 -188 -179
-397 -491 -595 -887 -66 -132 -133 -321 -292 -827 -57 -180 -104 -326 -106
-325 -1 2 8 82 21 178 31 230 52 434 66 653 15 232 7 710 -15 876 -74 559
-260 876 -571 974 -59 18 -92 22 -205 21 -177 -1 -226 -19 -321 -113 -138
-138 -224 -397 -259 -776 -6 -66 -15 -460 -20 -875 -9 -766 -13 -919 -31
-1340 l-11 -234 -69 -153 c-297 -656 -568 -1068 -803 -1218 -65 -41 -145 -71
-286 -106 -124 -30 -324 -33 -414 -5 -104 31 -192 82 -271 158 -118 111 -198
246 -264 447 -121 366 -140 745 -120 2331 12 1039 8 2038 -10 2335 -44 696
-121 1177 -247 1550 -177 526 -458 822 -844 891 -93 16 -308 16 -415 -1z m-74
-1045 c193 -99 247 -476 175 -1215 -21 -207 -156 -1481 -182 -1713 -4 -39 -13
-62 -34 -85 l-28 -32 -234 -7 c-231 -6 -361 -19 -593 -59 -364 -61 -823 -185
-1234 -333 -178 -64 -201 -67 -201 -27 0 57 483 1205 753 1791 142 309 268
554 337 660 157 238 382 511 586 711 294 287 504 386 655 309z m22442 -2719
c97 -25 148 -52 208 -108 161 -151 181 -432 59 -844 -61 -207 -221 -559 -323
-712 -76 -113 -241 -281 -373 -379 -182 -135 -418 -260 -637 -337 -137 -48
-130 -52 -123 82 49 843 200 1514 431 1907 122 208 284 351 446 394 79 21 221
20 312 -3z m-8802 -277 c99 -29 169 -74 269 -174 151 -151 265 -333 315 -506
74 -256 72 -740 -6 -1124 -17 -85 -26 -91 -130 -83 -83 6 -91 4 -145 -22 -115
-56 -165 -133 -200 -307 -22 -109 -15 -250 16 -332 28 -74 96 -145 160 -167
35 -12 49 -24 64 -54 17 -34 18 -46 8 -109 -6 -39 -36 -147 -67 -241 -108
-335 -234 -536 -378 -604 -241 -115 -544 -17 -752 242 -149 186 -247 448 -297
792 -18 121 -17 643 0 790 52 431 152 909 227 1086 187 437 451 748 694 815
65 17 158 17 222 -2z"/>
<path d="M24440 19121 c-71 -23 -97 -40 -110 -71 -7 -17 -9 -474 -8 -1442 l3
-1418 30 -29 c59 -59 207 -52 245 12 17 27 20 51 20 145 l0 113 68 -59 c192
-165 396 -243 637 -243 196 0 359 49 523 157 447 297 606 919 362 1420 -135
278 -372 479 -655 555 -119 32 -337 32 -455 0 -155 -41 -306 -124 -423 -231
l-57 -52 0 535 c0 525 0 535 21 561 11 14 19 34 17 44 -5 25 -143 28 -218 3z
m1044 -1151 c190 -48 363 -194 460 -387 14 -28 38 -91 53 -140 23 -78 26 -105
26 -233 1 -117 -3 -160 -21 -222 -107 -388 -456 -627 -807 -553 -88 19 -212
79 -287 139 -116 93 -213 247 -260 411 -32 112 -31 322 1 440 74 273 282 490
527 549 87 21 217 20 308 -4z"/>
<path d="M27196 19120 c-32 -10 -69 -29 -82 -41 l-24 -22 0 -1435 0 -1434 28
-28 c53 -52 181 -52 234 0 l28 28 0 1424 0 1423 26 38 c20 31 23 41 14 53 -18
21 -150 18 -224 -6z"/>
<path d="M28435 18707 c-34 -34 -35 -37 -35 -114 0 -115 37 -153 150 -153 114
0 154 45 148 166 -3 65 -7 77 -31 101 -25 25 -35 28 -112 32 l-85 3 -35 -35z"/>
<path d="M19984 18274 c-323 -54 -581 -277 -613 -529 -21 -171 38 -308 182
-419 126 -98 234 -145 622 -274 149 -49 304 -105 345 -125 188 -87 237 -168
170 -283 -36 -63 -87 -105 -182 -148 -122 -56 -194 -70 -358 -70 -164 1 -250
18 -361 74 -128 64 -183 127 -199 227 -7 45 -16 64 -40 86 -28 25 -37 27 -111
27 -79 0 -82 -1 -115 -34 -38 -38 -42 -63 -24 -157 45 -237 285 -433 611 -499
130 -27 343 -29 468 -5 304 59 534 224 613 440 30 83 30 218 0 295 -76 193
-248 300 -757 470 -339 114 -459 167 -523 232 -53 55 -62 98 -37 164 84 220
484 316 765 183 127 -60 195 -139 207 -240 5 -43 13 -61 39 -86 30 -31 36 -33
103 -33 127 0 168 43 151 159 -12 88 -35 151 -81 222 -162 250 -521 383 -875
323z"/>
<path d="M28464 18280 c-12 -4 -31 -21 -43 -36 l-21 -27 0 -1014 0 -1015 28
-28 c53 -52 181 -52 234 0 l28 28 0 1019 c0 949 -2 1019 -18 1039 -9 12 -27
27 -39 33 -25 13 -138 14 -169 1z"/>
<path d="M29694 18256 l-34 -34 0 -1017 0 -1017 28 -28 c50 -49 175 -52 230
-5 l27 23 5 679 c7 751 4 724 75 868 37 77 120 168 188 209 116 67 270 74 391
18 94 -44 181 -133 230 -234 64 -133 66 -153 66 -734 0 -286 3 -583 7 -660 l6
-139 34 -34 c33 -33 34 -33 114 -29 77 3 82 5 110 36 l29 32 0 668 c0 738 -1
719 65 860 47 100 127 182 224 230 72 36 79 37 180 37 99 0 111 -2 174 -32 94
-45 176 -125 225 -221 72 -141 72 -132 79 -868 5 -531 8 -664 20 -686 20 -40
62 -58 135 -58 63 0 96 13 125 50 16 20 18 1281 2 1397 -25 184 -106 356 -227
485 -180 191 -423 272 -670 222 -168 -33 -347 -148 -448 -286 l-36 -48 -46 61
c-25 34 -75 85 -110 115 -256 211 -602 229 -870 44 l-72 -49 0 57 c-1 92 -38
122 -148 122 -71 0 -75 -1 -108 -34z"/>
<path d="M34055 18279 c-199 -29 -405 -137 -550 -291 -191 -200 -288 -434
-301 -728 -25 -544 312 -1013 801 -1115 111 -23 321 -21 440 4 237 50 444 181
594 376 56 73 63 126 21 170 -45 48 -107 85 -142 85 -46 -1 -69 -16 -122 -81
-140 -174 -311 -261 -536 -276 -251 -16 -482 102 -627 320 -47 71 -105 208
-117 280 l-7 37 806 0 c875 0 847 -2 873 55 28 62 6 300 -43 448 -159 488
-611 785 -1090 716z m295 -304 c118 -28 225 -89 321 -185 119 -118 195 -257
223 -407 l6 -33 -695 0 c-501 0 -695 3 -695 11 0 35 37 146 75 224 95 196 269
343 461 389 79 19 224 19 304 1z"/>
<path d="M21729 18250 l-30 -29 3 -718 c4 -694 4 -720 24 -778 102 -297 353
-515 669 -580 163 -33 381 -17 534 41 226 85 412 263 498 474 49 121 51 152
57 869 6 722 6 714 -43 741 -11 5 -58 10 -105 10 -75 0 -88 -3 -113 -24 l-28
-24 -5 -689 c-5 -679 -6 -689 -28 -747 -29 -79 -56 -121 -121 -189 -229 -242
-647 -247 -891 -11 -78 75 -123 151 -146 250 -14 61 -16 143 -12 714 5 686 5
685 -41 710 -11 5 -59 10 -106 10 -83 0 -88 -1 -116 -30z"/>
</g>
</svg>
