<?xml version="1.0" encoding="UTF-8" standalone="no"?>
<svg
   xmlns:dc="http://purl.org/dc/elements/1.1/"
   xmlns:cc="http://creativecommons.org/ns#"
   xmlns:rdf="http://www.w3.org/1999/02/22-rdf-syntax-ns#"
   xmlns:svg="http://www.w3.org/2000/svg"
   xmlns="http://www.w3.org/2000/svg"
   viewBox="0 0 1122.52 793.70667"
   height="793.70667"
   width="1122.52"
   xml:space="preserve"
   id="svg2"
   version="1.1"><metadata
     id="metadata8"><rdf:RDF><cc:Work
         rdf:about=""><dc:format>image/svg+xml</dc:format><dc:type
           rdf:resource="http://purl.org/dc/dcmitype/StillImage" /></cc:Work></rdf:RDF></metadata><defs
     id="defs6"><clipPath
       id="clipPath18"
       clipPathUnits="userSpaceOnUse"><path
         id="path16"
         d="M 0,595.28 H 841.89 V 0 H 0 Z" /></clipPath></defs><g
     transform="matrix(1.3333333,0,0,-1.3333333,0,793.70667)"
     id="g10"><g
       id="g12"><g
         clip-path="url(#clipPath18)"
         id="g14"><g
           transform="translate(652.373,307.5767)"
           id="g20"><path
             id="path22"
             style="fill:#e24244;fill-opacity:1;fill-rule:nonzero;stroke:none"
             d="m 0,0 c 0,-126.731 -102.737,-229.469 -229.469,-229.469 -126.731,0 -229.468,102.738 -229.468,229.469 0,126.732 102.737,229.469 229.468,229.469 C -102.737,229.469 0,126.732 0,0" /></g><g
           transform="translate(652.373,307.5767)"
           id="g24"><path
             id="path26"
             style="fill:#e24244;fill-opacity:1;fill-rule:nonzero;stroke:none"
             d="m 0,0 c 0,-126.731 -102.737,-229.469 -229.469,-229.469 -126.731,0 -229.468,102.738 -229.468,229.469 0,126.732 102.737,229.469 229.468,229.469 C -102.737,229.469 0,126.732 0,0" /></g><g
           transform="translate(574.332,302.2251)"
           id="g28"><path
             id="path30"
             style="fill:#ffffff;fill-opacity:1;fill-rule:nonzero;stroke:none"
             d="m 0,0 c 6.049,0 13.163,3.503 17.552,7.718 4.693,4.524 8.304,11.693 9.247,17.877 C 27.544,30.5 22.235,38.83 13.248,39.702 -6.732,41.64 -13.981,14.744 -14.43,10.125 -17.157,8.19 -16.368,36.88 -28.734,39.68 -41.938,42.668 -51.748,10.916 -52.095,9.516 c -0.254,-1.069 2.302,12.425 1.396,23.16 -0.28,3.317 -2.479,12.386 -8.109,13.081 -3.296,0.408 -6.576,0.432 -8.303,-6.506 -0.808,-3.243 -0.357,-28.41 -0.14,-38.216 -0.404,-0.677 -3.968,-2.526 -14.768,-5.224 -0.215,0.448 4.316,15.34 0.347,27.179 -8.002,23.875 -29.243,18.281 -32.304,16.109 -18.542,-13.162 -9.127,-38.419 -11.857,-43.156 -1.639,-2.842 -13.229,-21.341 -15.048,-5.134 -1.083,9.653 -0.041,25.022 -0.827,37.532 -1.13,17.964 -22.694,25.438 -31.637,-6.556 -0.294,-1.053 -10.58,40.853 -28.508,3.194 -0.904,-1.901 -4.235,-13.202 -4.582,-13.75 -0.216,0.215 7.11,37.439 -10.453,34.836 -5.886,-0.872 -5.878,-12.827 -5.993,-13.621 -0.086,-0.607 -0.017,-18.663 -0.638,-28.998 V 3.432 c -7.896,-18.1 -12,-18.086 -13.91,-18.653 -13.05,-3.862 -14.386,11.514 -14.583,16.532 -1.278,32.449 5.663,81.378 -16.051,82.015 -35.178,1.025 -55.067,-97.591 -55.617,-101.501 -0.23,-1.243 -0.172,-2.081 0.159,-2.527 0.333,-0.448 1.011,-0.896 2.021,-1.344 1.444,-0.662 3.017,-0.894 4.692,-0.662 0.895,0 1.515,0.273 1.847,0.836 0.448,1.01 7.765,31.929 9.224,37.082 0.331,1.111 1.154,1.717 2.353,2.18 11.792,4.575 25.274,6.755 27.511,7.217 1.228,0.217 1.964,0.245 2.181,0.072 0.23,-0.159 0.287,-0.866 0.171,-2.094 -0.229,-2.683 -4.719,-54.085 28.524,-49.323 2.339,0.333 14.868,-0.055 21.782,16.081 -3.296,-19.703 9.162,-15.818 11.399,-16.05 5.911,1.934 10.324,36.764 16.914,48.394 0.613,1.081 8.325,13.035 10.851,0.524 1.433,-7.093 1.039,-28.022 1.44,-29.921 1.328,-6.29 7.916,-4.616 9.272,-3.592 3.262,2.453 11.033,32.563 12.359,37.513 1.829,6.233 6.707,5.044 6.581,1.835 -0.055,-10.87 -2.874,-50.992 8.254,-55.691 4.642,-1.96 11.533,-2.879 22.559,16.476 0.52,-1.56 5.25,-17.206 19.782,-17.457 13.913,-0.24 18.885,16.656 19.449,18.229 0.548,1.11 1.284,1.675 2.179,1.675 1.413,0 9.29,1.006 15.125,5.486 -2.441,-24.122 5.91,-24.945 11.708,-23.093 1.474,0.471 2.759,5.867 3.245,7.936 6.5,27.643 21.827,64.088 24.123,36.404 0.323,-3.899 2.945,-20.224 12.66,-14.103 0,-5.585 0.721,-9.744 0.981,-10.61 1.457,-4.82 3.471,-9.032 6.553,-12.167 13.244,-13.476 28.125,-5.041 30.508,-2.71 C 39.384,-5.28 31.19,-3.203 27.972,-6.986 5.778,-33.058 -3.363,-1.062 0,0" /></g><g
           transform="translate(304.5796,361.9795)"
           id="g32"><path
             id="path34"
             style="fill:#e24244;fill-opacity:1;fill-rule:nonzero;stroke:none"
             d="m 0,0 c -0.086,-3.752 -2.54,-24.812 -2.757,-27.599 -0.116,-1.009 -0.664,-1.385 -1.689,-1.342 -11.779,0.361 -26.444,-5.427 -27.671,-5.875 -0.231,0.217 -0.346,0.39 -0.346,0.506 0.346,0.895 0.679,1.79 1.01,2.684 0.333,0.895 7.939,19.458 12.082,27.18 C -16.801,0.016 0.592,23.572 0,0" /></g><g
           transform="translate(483.6826,309.8574)"
           id="g36"><path
             id="path38"
             style="fill:#ffffff;fill-opacity:1;fill-rule:nonzero;stroke:none"
             d="m 0,0 c -0.058,-0.275 -0.606,-0.506 -1.055,-0.376 -1.573,0.476 -2.713,-0.433 -3.391,-0.88 -1.573,-1.011 -3.19,-8.589 1.01,-9.728 0.982,-0.277 0.838,-1.79 0.492,-3.017 -0.448,-1.128 -1.777,-7.203 -4.778,-9.396 -5.312,-3.872 -20.397,2.091 -11.822,35.232 0.578,2.223 1.256,4.36 2.093,6.382 0.838,2.006 7.794,13.986 16.528,-0.347 C 2.699,11.923 0.058,0.288 0,0" /></g><g
           transform="translate(483.6826,309.8574)"
           id="g40"><path
             id="path42"
             style="fill:#e24244;fill-opacity:1;fill-rule:nonzero;stroke:none"
             d="m 0,0 c -0.058,-0.275 -0.606,-0.506 -1.055,-0.376 -1.573,0.476 -2.713,-0.433 -3.391,-0.88 -1.573,-1.011 -3.19,-8.589 1.01,-9.728 0.982,-0.277 0.838,-1.79 0.492,-3.017 -0.448,-1.128 -1.777,-7.203 -4.778,-9.396 -5.312,-3.872 -20.397,2.091 -11.822,35.232 0.578,2.223 8.974,21.983 18.621,6.035 C 2.681,11.911 0.058,0.288 0,0" /></g><g
           transform="translate(587.8564,337.4565)"
           id="g44"><path
             id="path46"
             style="fill:#e24244;fill-opacity:1;fill-rule:nonzero;stroke:none"
             d="M 0,0 C 10.663,-1.233 3.262,-16.47 1.429,-19.963 -2.829,-28.018 -13.843,-31.281 -14.016,-31.122 -14.176,-30.948 -13.341,1.542 0,0" /></g><g
           transform="translate(304.5796,361.9795)"
           id="g48"><path
             id="path50"
             style="fill:#e24244;fill-opacity:1;fill-rule:nonzero;stroke:none"
             d="m 0,0 c -0.086,-3.752 -2.54,-24.812 -2.757,-27.599 -0.116,-1.009 -0.664,-1.385 -1.689,-1.342 -11.779,0.361 -26.444,-5.427 -27.671,-5.875 -0.231,0.217 -0.346,0.39 -0.346,0.506 0.346,0.895 0.679,1.79 1.01,2.684 0.333,0.895 7.939,19.458 12.082,27.18 C -16.801,0.016 0.592,23.572 0,0" /></g><g
           transform="translate(401.6738,245.1973)"
           id="g52"><path
             id="path54"
             style="fill:#ffffff;fill-opacity:1;fill-rule:nonzero;stroke:none"
             d="m 0,0 h -1.04 c 0,3.067 -3.585,5.405 -7.689,5.405 -4.105,0 -7.69,-2.338 -7.69,-5.405 0,-5.923 17.406,-5.091 17.354,-12.052 0,-3.481 -4.105,-6.444 -9.664,-6.444 -5.56,0 -9.665,2.963 -9.665,6.444 h 1.04 c 0,-3.067 4.001,-5.404 8.625,-5.404 4.625,0 8.625,2.337 8.625,5.404 0,5.923 -17.302,4.988 -17.354,12.052 0,3.482 3.793,6.445 8.729,6.445 C -3.793,6.445 0,3.482 0,0" /></g><g
           transform="translate(392.9443,225.6182)"
           id="g56"><path
             id="path58"
             style="fill:#ffffff;fill-opacity:1;fill-rule:nonzero;stroke:none"
             d="m 0,0 c -6.026,0 -10.747,3.307 -10.747,7.527 0,0.598 0.485,1.083 1.082,1.083 h 1.041 c 0.598,0 1.082,-0.485 1.082,-1.083 0,-2.342 3.454,-4.322 7.542,-4.322 4.089,0 7.543,1.98 7.543,4.322 0,2.041 -3.731,3.234 -7.34,4.386 -4.679,1.494 -9.981,3.187 -10.014,7.659 0,4.157 4.401,7.534 9.811,7.534 5.29,0 9.616,-3.227 9.805,-7.251 0.024,-0.086 0.035,-0.179 0.035,-0.276 0,-0.598 -0.483,-1.082 -1.082,-1.082 H 8.729 7.689 c -0.597,0 -1.082,0.484 -1.082,1.082 0,2.343 -3.025,4.322 -6.607,4.322 -3.582,0 -6.607,-1.979 -6.607,-4.322 0,-2.049 3.768,-3.262 7.412,-4.434 C 5.48,13.643 10.779,11.937 10.747,7.519 10.747,3.307 6.026,0 0,0" /></g><g
           transform="translate(414.0449,251.1211)"
           id="g60"><path
             id="path62"
             style="fill:#ffffff;fill-opacity:1;fill-rule:nonzero;stroke:none"
             d="M 0,0 V 0.468 H 1.142 L 1.091,-0.051 1.039,-15.328 c 0,-4.469 4.053,-8.052 9.04,-8.052 4.988,0 8.988,3.583 8.988,8.052 V 0 0.468 h 1.144 l -0.052,-0.519 -0.053,-15.277 c 0,-4.987 -4.416,-9.092 -10.027,-9.092 C 4.467,-24.42 0,-20.315 0,-15.328 Z" /></g><g
           transform="translate(424.124,225.6182)"
           id="g64"><path
             id="path66"
             style="fill:#ffffff;fill-opacity:1;fill-rule:nonzero;stroke:none"
             d="m 0,0 c -6.155,0 -11.162,4.564 -11.162,10.175 v 15.796 c 0,0.597 0.485,1.083 1.083,1.083 h 1.141 c 0.306,0 0.597,-0.129 0.802,-0.356 0.205,-0.225 0.305,-0.527 0.276,-0.832 L -7.911,25.347 -7.958,10.172 c 0,-3.84 3.569,-6.967 7.958,-6.967 4.359,0 7.906,3.127 7.906,6.97 v 15.796 c 0,0.597 0.485,1.083 1.082,1.083 h 1.144 c 0.306,0 0.597,-0.13 0.804,-0.356 0.204,-0.227 0.304,-0.53 0.273,-0.835 L 11.156,25.344 11.11,10.172 C 11.11,4.564 6.126,0 0,0" /></g><g
           transform="translate(448.7061,239.1191)"
           id="g68"><path
             id="path70"
             style="fill:#ffffff;fill-opacity:1;fill-rule:nonzero;stroke:none"
             d="m 0,0 c 0,-6.286 4.676,-11.378 10.392,-11.378 5.766,0 10.391,5.092 10.391,11.429 0,6.341 -4.625,11.432 -10.391,11.432 C 4.676,11.483 0,6.392 0,0 m -1.039,0 v 22.912 0.522 H 0 V 22.912 5.238 c 1.819,4.333 5.827,7.285 10.392,7.285 6.287,0 11.43,-5.508 11.43,-12.472 0,-6.96 -5.143,-12.469 -11.43,-12.469 -4.565,0 -8.573,2.951 -10.392,7.245 v -6.723 -0.522 h -1.039 v 0.522 z" /></g><g
           transform="translate(459.0977,249.5195)"
           id="g72"><path
             id="path74"
             style="fill:#ffffff;fill-opacity:1;fill-rule:nonzero;stroke:none"
             d="m 0,0 c -5.133,0 -9.31,-4.666 -9.31,-10.4 0,-5.678 4.177,-10.296 9.31,-10.296 5.133,0 9.309,4.64 9.309,10.346 C 9.309,-4.644 5.133,0 0,0 m 0,-23.901 c -3.596,0 -6.968,1.682 -9.31,4.488 v -3.405 c 0,-0.598 -0.484,-1.083 -1.082,-1.083 h -1.039 c -0.597,0 -1.083,0.485 -1.083,1.083 v 35.851 c 0,0.598 1.929,1.083 2.527,1.083 h 1.039 c 0.597,0 -0.362,-0.485 -0.362,-1.083 V -1.301 C -6.971,1.516 -3.601,3.205 0,3.205 6.9,3.205 12.513,-2.876 12.513,-10.35 12.513,-17.82 6.9,-23.901 0,-23.901" /></g><g
           transform="translate(483.0049,262.0312)"
           id="g76"><path
             id="path78"
             style="fill:#ffffff;fill-opacity:1;fill-rule:nonzero;stroke:none"
             d="M 0,0 V 0.521 H 1.039 V 0 -34.809 -35.33 H 0 v 0.521 z" /></g><g
           transform="translate(484.0439,225.6182)"
           id="g80"><path
             id="path82"
             style="fill:#ffffff;fill-opacity:1;fill-rule:nonzero;stroke:none"
             d="m 0,0 h -1.039 c -0.598,0 -1.083,0.485 -1.083,1.083 v 35.852 c 0,0.597 1.929,1.083 2.526,1.083 h 1.039 c 0.598,0 -0.361,-0.486 -0.361,-1.083 V 1.083 C 1.082,0.485 0.598,0 0,0" /></g><g
           transform="translate(499.7891,251.1211)"
           id="g84"><path
             id="path86"
             style="fill:#ffffff;fill-opacity:1;fill-rule:nonzero;stroke:none"
             d="M 0,0 V 0.521 H 1.04 V 0 -23.898 -24.42 H 0 v 0.522 z M 0.521,5.249 H 0 V 6.287 H 0.521 0.572 1.091 V 5.249 H 0.572 Z" /></g><g
           transform="translate(500.8799,255.2881)"
           id="g88"><path
             id="path90"
             style="fill:#ffffff;fill-opacity:1;fill-rule:nonzero;stroke:none"
             d="M 0,0 H -1.091 C -1.688,0 -2.174,0.484 -2.174,1.082 V 2.12 c 0,0.598 0.486,1.082 1.083,1.082 H 0 c 0.598,0 1.083,-0.484 1.083,-1.082 V 1.082 C 1.083,0.484 0.598,0 0,0 m -0.051,-29.67 h -1.04 c -0.597,0 -1.083,0.485 -1.083,1.083 v 24.941 c 0,0.598 0.486,1.083 1.083,1.083 h 1.04 c 0.598,0 1.083,-0.485 1.083,-1.083 v -24.941 c 0,-0.598 -0.485,-1.083 -1.083,-1.083" /></g><g
           transform="translate(532.3174,245.3896)"
           id="g92"><path
             id="path94"
             style="fill:#ffffff;fill-opacity:1;fill-rule:nonzero;stroke:none"
             d="m 0,0 c 1.192,3.69 4.302,6.253 7.95,6.253 4.676,0 8.469,-4.209 8.469,-9.613 v -14.807 l 0.053,-0.572 h -0.989 l -0.05,0.518 -0.053,14.861 c 0,4.781 -3.273,8.573 -7.43,8.573 -4.157,0 -7.429,-3.792 -7.429,-8.573 v -0.52 -14.287 l 0.051,-0.572 h -0.988 l -0.051,0.518 -0.051,14.341 h -0.001 v 0.52 c 0,4.781 -3.273,8.573 -7.43,8.573 -4.156,0 -7.43,-3.792 -7.43,-8.573 v -0.52 -14.287 -0.521 h -1.039 v 0.521 14.287 0.52 9.091 0.522 h 1.039 V 5.731 1.297 c 1.44,2.979 4.228,4.956 7.43,4.956 C -4.302,6.253 -1.191,3.69 0,0" /></g><g
           transform="translate(548.7891,225.5674)"
           id="g96"><path
             id="path98"
             style="fill:#ffffff;fill-opacity:1;fill-rule:nonzero;stroke:none"
             d="m 0,0 h -0.988 c -0.557,0 -1.024,0.423 -1.077,0.977 l -0.051,0.52 -0.058,14.962 c 0,4.203 -2.788,7.493 -6.347,7.493 -3.56,0 -6.348,-3.29 -6.348,-7.49 L -14.821,1.18 C -14.794,0.877 -14.895,0.576 -15.101,0.353 -15.305,0.127 -15.595,0 -15.899,0 h -0.989 c -0.556,0 -1.023,0.423 -1.077,0.977 l -0.051,0.52 -0.057,14.962 c 0,4.203 -2.788,7.493 -6.348,7.493 -3.558,0 -6.348,-3.29 -6.348,-7.49 V 1.134 c 0,-0.598 -0.484,-1.083 -1.082,-1.083 h -1.039 c -0.597,0 -1.083,0.485 -1.083,1.083 v 24.941 c 0,0.598 0.486,1.082 1.083,1.082 h 1.039 c 0.598,0 1.082,-0.484 1.082,-1.082 v -1.589 c 1.718,1.695 3.963,2.671 6.348,2.671 3.238,0 6.21,-1.826 7.949,-4.727 1.742,2.901 4.712,4.727 7.951,4.727 5.356,0 9.551,-4.698 9.551,-10.695 L 1.078,1.18 C 1.104,0.877 1.005,0.576 0.799,0.353 0.595,0.127 0.304,0 0,0" /></g><g
           transform="translate(562.2646,239.6914)"
           id="g100"><path
             id="path102"
             style="fill:#ffffff;fill-opacity:1;fill-rule:nonzero;stroke:none"
             d="m 0,0 h 20.772 c 0,5.819 -4.624,10.911 -10.392,10.911 C 4.722,10.911 0.241,6.096 0,0 m 19.526,-7.327 0.83,-0.623 c -1.61,-2.236 -4.571,-5.091 -9.976,-5.04 -6.337,0 -11.43,5.509 -11.43,12.469 0,6.963 5.093,12.472 11.43,12.472 6.287,0 11.431,-5.509 11.431,-12.472 V -1.04 H 21.292 0 c 0.241,-6.095 4.722,-10.91 10.38,-10.91 4.989,-0.054 7.64,2.596 9.146,4.623" /></g><g
           transform="translate(563.4463,240.7744)"
           id="g104"><path
             id="path106"
             style="fill:#ffffff;fill-opacity:1;fill-rule:nonzero;stroke:none"
             d="M 0,0 H 18.448 C 17.92,4.841 13.898,8.745 9.198,8.745 4.547,8.745 0.687,4.985 0,0 M 9.344,-15.156 H 9.188 c -7.006,0 -12.502,5.954 -12.502,13.552 0,7.6 5.496,13.554 12.512,13.554 6.901,0 12.514,-6.081 12.514,-13.554 v -0.519 c 0,-0.598 -0.485,-1.082 -1.083,-1.082 L 0,-3.205 c 0.687,-4.987 4.547,-8.746 9.198,-8.746 l 0.146,-10e-4 c 4.497,0 6.795,2.39 8.132,4.187 0.171,0.232 0.428,0.387 0.713,0.426 0.293,0.043 0.577,-0.032 0.806,-0.205 l 0.831,-0.623 c 0.471,-0.355 0.57,-1.021 0.227,-1.5 -2.625,-3.643 -6.228,-5.489 -10.709,-5.489" /></g></g></g></g></svg>